<?xml version="1.0" encoding="UTF-8" standalone="no"?>
<!DOCTYPE svg PUBLIC "-//W3C//DTD SVG 1.1//EN"
 "http://www.w3.org/Graphics/SVG/1.1/DTD/svg11.dtd">
<!-- Generated by graphviz version 8.0.5 (20230430.1635)
 -->
<!-- Pages: 1 -->
<svg width="811pt" height="127pt"
 viewBox="0.00 0.00 811.25 127.00" xmlns="http://www.w3.org/2000/svg" xmlns:xlink="http://www.w3.org/1999/xlink">
<g id="graph0" class="graph" transform="scale(1 1) rotate(0) translate(4 123)">
<polygon fill="white" stroke="none" points="-4,4 -4,-123 807.25,-123 807.25,4 -4,4"/>
<!-- 4393555984 -->
<g id="node1" class="node">
<title>4393555984</title>
<polygon fill="none" stroke="black" points="311.25,-27.5 311.25,-63.5 496.5,-63.5 496.5,-27.5 311.25,-27.5"/>
<text text-anchor="middle" x="321.12" y="-40.7" font-family="Times,serif" font-size="14.00"> </text>
<polyline fill="none" stroke="black" points="331,-28 331,-63.5"/>
<text text-anchor="middle" x="373.12" y="-40.7" font-family="Times,serif" font-size="14.00">data &#45;3.0000</text>
<polyline fill="none" stroke="black" points="415.25,-28 415.25,-63.5"/>
<text text-anchor="middle" x="455.88" y="-40.7" font-family="Times,serif" font-size="14.00">grad 0.0000</text>
</g>
<!-- 4393556176+ -->
<g id="node5" class="node">
<title>4393556176+</title>
<ellipse fill="none" stroke="black" cx="559.5" cy="-72.5" rx="27" ry="18"/>
<text text-anchor="middle" x="559.5" y="-67.45" font-family="Times,serif" font-size="14.00">+</text>
</g>
<!-- 4393555984&#45;&gt;4393556176+ -->
<g id="edge5" class="edge">
<title>4393555984&#45;&gt;4393556176+</title>
<path fill="none" stroke="black" d="M496.46,-61.6C505.54,-63.19 514.34,-64.74 522.32,-66.14"/>
<polygon fill="black" stroke="black" points="521.54,-69.73 531.99,-68.02 522.75,-62.84 521.54,-69.73"/>
</g>
<!-- 4393555984* -->
<g id="node2" class="node">
<title>4393555984*</title>
<ellipse fill="none" stroke="black" cx="248.25" cy="-45.5" rx="27" ry="18"/>
<text text-anchor="middle" x="248.25" y="-40.45" font-family="Times,serif" font-size="14.00">*</text>
</g>
<!-- 4393555984*&#45;&gt;4393555984 -->
<g id="edge1" class="edge">
<title>4393555984*&#45;&gt;4393555984</title>
<path fill="none" stroke="black" d="M275.66,-45.5C283.06,-45.5 291.57,-45.5 300.62,-45.5"/>
<polygon fill="black" stroke="black" points="300.45,-49 310.45,-45.5 300.45,-42 300.45,-49"/>
</g>
<!-- 4393554976 -->
<g id="node3" class="node">
<title>4393554976</title>
<polygon fill="none" stroke="black" points="312,-82.5 312,-118.5 495.75,-118.5 495.75,-82.5 312,-82.5"/>
<text text-anchor="middle" x="323.38" y="-95.7" font-family="Times,serif" font-size="14.00">b</text>
<polyline fill="none" stroke="black" points="334.75,-83 334.75,-118.5"/>
<text text-anchor="middle" x="374.62" y="-95.7" font-family="Times,serif" font-size="14.00">data 4.0000</text>
<polyline fill="none" stroke="black" points="414.5,-83 414.5,-118.5"/>
<text text-anchor="middle" x="455.12" y="-95.7" font-family="Times,serif" font-size="14.00">grad 0.0000</text>
</g>
<!-- 4393554976&#45;&gt;4393556176+ -->
<g id="edge6" class="edge">
<title>4393554976&#45;&gt;4393556176+</title>
<path fill="none" stroke="black" d="M495.57,-83.97C505.04,-82.24 514.22,-80.57 522.5,-79.06"/>
<polygon fill="black" stroke="black" points="522.98,-82.35 532.19,-77.11 521.72,-75.46 522.98,-82.35"/>
</g>
<!-- 4393556176 -->
<g id="node4" class="node">
<title>4393556176</title>
<polygon fill="none" stroke="black" points="622.5,-54.5 622.5,-90.5 803.25,-90.5 803.25,-54.5 622.5,-54.5"/>
<text text-anchor="middle" x="632.38" y="-67.7" font-family="Times,serif" font-size="14.00"> </text>
<polyline fill="none" stroke="black" points="642.25,-55 642.25,-90.5"/>
<text text-anchor="middle" x="682.12" y="-67.7" font-family="Times,serif" font-size="14.00">data 1.0000</text>
<polyline fill="none" stroke="black" points="722,-55 722,-90.5"/>
<text text-anchor="middle" x="762.62" y="-67.7" font-family="Times,serif" font-size="14.00">grad 0.0000</text>
</g>
<!-- 4393556176+&#45;&gt;4393556176 -->
<g id="edge2" class="edge">
<title>4393556176+&#45;&gt;4393556176</title>
<path fill="none" stroke="black" d="M586.87,-72.5C594.3,-72.5 602.85,-72.5 611.92,-72.5"/>
<polygon fill="black" stroke="black" points="611.77,-76 621.77,-72.5 611.77,-69 611.77,-76"/>
</g>
<!-- 4393555936 -->
<g id="node6" class="node">
<title>4393555936</title>
<polygon fill="none" stroke="black" points="0,-55.5 0,-91.5 185.25,-91.5 185.25,-55.5 0,-55.5"/>
<text text-anchor="middle" x="9.88" y="-68.7" font-family="Times,serif" font-size="14.00"> </text>
<polyline fill="none" stroke="black" points="19.75,-56 19.75,-91.5"/>
<text text-anchor="middle" x="61.88" y="-68.7" font-family="Times,serif" font-size="14.00">data &#45;1.0000</text>
<polyline fill="none" stroke="black" points="104,-56 104,-91.5"/>
<text text-anchor="middle" x="144.62" y="-68.7" font-family="Times,serif" font-size="14.00">grad 0.0000</text>
</g>
<!-- 4393555936&#45;&gt;4393555984* -->
<g id="edge4" class="edge">
<title>4393555936&#45;&gt;4393555984*</title>
<path fill="none" stroke="black" d="M185.21,-56.81C194.29,-55.15 203.09,-53.55 211.07,-52.09"/>
<polygon fill="black" stroke="black" points="211.53,-55.39 220.74,-50.15 210.28,-48.5 211.53,-55.39"/>
</g>
<!-- 4393554928 -->
<g id="node7" class="node">
<title>4393554928</title>
<polygon fill="none" stroke="black" points="1.12,-0.5 1.12,-36.5 184.12,-36.5 184.12,-0.5 1.12,-0.5"/>
<text text-anchor="middle" x="12.12" y="-13.7" font-family="Times,serif" font-size="14.00">a</text>
<polyline fill="none" stroke="black" points="23.12,-1 23.12,-36.5"/>
<text text-anchor="middle" x="63" y="-13.7" font-family="Times,serif" font-size="14.00">data 3.0000</text>
<polyline fill="none" stroke="black" points="102.88,-1 102.88,-36.5"/>
<text text-anchor="middle" x="143.5" y="-13.7" font-family="Times,serif" font-size="14.00">grad 0.0000</text>
</g>
<!-- 4393554928&#45;&gt;4393555984* -->
<g id="edge3" class="edge">
<title>4393554928&#45;&gt;4393555984*</title>
<path fill="none" stroke="black" d="M183.88,-34.36C193.4,-36.04 202.63,-37.66 210.97,-39.12"/>
<polygon fill="black" stroke="black" points="210.28,-42.73 220.74,-41.02 211.49,-35.84 210.28,-42.73"/>
</g>
</g>
</svg>
